<?xml version="1.0" standalone="no"?>
<!DOCTYPE svg PUBLIC "-//W3C//DTD SVG 1.1//EN" "http://www.w3.org/Graphics/SVG/1.1/DTD/svg11.dtd" >
<svg xmlns="http://www.w3.org/2000/svg">
<metadata>
This is a custom SVG font generated by IcoMoon.
<iconset grid="20"></iconset>
</metadata>
<defs>
<font id="zapplab" horiz-adv-x="640" >
<font-face units-per-em="640" ascent="608" descent="-32" />
<missing-glyph horiz-adv-x="640" />
<glyph class="hidden" unicode="&#xf000;" d="M0,608L 640 -32L0 -32 z" horiz-adv-x="0" />
<glyph unicode="&#xe000;" d="M 640,238.973 L 320,487.364 L 0,238.971 L 0,340.245 L 320,588.636 L 640,340.244 ZM 560,248 L 560,8 L 400,8 L 400,168 L 240,168 L 240,8 L 80,8 L 80,248 L 320,428 Z"  />
<glyph unicode="&#xf040;" d="M 600,48l-560,0 q-16.25,0 -28.125,11.875t-11.875,28.125l0,400 q0,16.25 11.875,28.125t 28.125,11.875l 560,0 q 16.25,0 28.125-11.875t 11.875-28.125l0-400 q0-16.875 -11.875-28.438t-28.125-11.563zM 220,224.25l0,10.625 q 60,23.75 60,133.125q0,39.375 -27.813,59.688t-72.188,20.313t-72.188-20.313t-27.813-59.688q0-106.25 60-132.5l0-11.25 q-43.75-7.5 -71.563-28.125t-28.438-46.875q0-7.5 13.438-12.188
t 39.375-6.563t 42.813-2.188t 44.375-0.313t 44.375,0.313t 42.813,2.188t 39.375,6.563t 13.438,12.188q-0.625,26.25 -28.75,46.875t-71.25,28.125zM 580,448l-160,0 q-8.125,0 -14.063-5.938t-5.938-14.063t 5.938-14.063t 14.063-5.938l 160,0 q 8.125,0 14.063,5.938t 5.938,14.063t-5.938,14.063t-14.063,5.938zM 400,308q0-8.125 5.938-14.063t 14.063-5.938l 80,0 q 8.125,0 14.063,5.938t 5.938,14.063
t-5.938,14.063t-14.063,5.938l-80,0 q-8.125,0 -14.063-5.938t-5.938-14.063zM 580,208l-160,0 q-8.125,0 -14.063-5.938t-5.938-14.063t 5.938-14.063t 14.063-5.938l 160,0 q 8.125,0 14.063,5.938t 5.938,14.063t-5.938,14.063t-14.063,5.938z"  />
<glyph unicode="&#xf148;" d="M 560,8l0-20 q0-8.125 -5.938-14.063t-14.063-5.938l-40,0 q-8.125,0 -14.063,5.938t-5.938,14.063l0,20 l-320,0 l0-20 q0-8.125 -5.938-14.063t-14.063-5.938l-40,0 q-8.125,0 -14.063,5.938t-5.938,14.063l0,20 q-33.125,0 -56.563,23.438t-23.438,56.563l0,40 q0,43.75 22.813,90.313t 60.625,78.125t 76.563,31.563q 16.25,0 28.125,11.563t 11.875,28.438l0,40 q0,16.25 11.563,28.125
t 28.438,11.875t 28.438-11.875t 11.563-28.125l 80,0 q0,16.25 11.563,28.125t 28.438,11.875t 28.438-11.875t 11.563-28.125l0-40 q0-16.875 11.563-28.438t 28.438-11.563q 38.75,0 76.563-31.563t 60.625-78.125t 22.813-90.313l0-40 q0-33.125 -23.438-56.563t-56.563-23.438zM 320,288q-50,0 -85-35.313t-35-85t 35-84.688t 85-35t 85,35t 35,85t-35,85
t-85,35zM 320,88q-33.125,0 -56.563,23.438t-23.438,56.563t 23.438,56.563t 56.563,23.438t 56.563-23.438t 23.438-56.563t-23.438-56.563t-56.563-23.438zM 560,368l-20.313,0 t-17.813,0.625t-17.188,1.875t-12.5,3.438t-9.375,5.625t-2.813,8.438l0,64.375 q-15.625,13.75 -62.5,24.688t-97.5,10.938t-97.5-10.938t-62.5-24.688l0-64.375 q0-5 -2.813-8.438t-9.375-5.625
t-12.5-3.438t-17.188-1.875t-17.813-0.625l-20.313,0 l-21.875,0 t-18.125,0.625t-16.875,1.875t-11.875,3.438t-8.75,5.625t-2.5,8.438l0,54.375 q0,38.75 43.438,67.813t 115.313,43.438t 161.25,14.375t 161.25-14.375t 115.313-43.438t 43.438-67.813l0-54.375 q0-5 -2.5-8.438t-8.75-5.625t-11.875-3.438t-16.875-1.875t-18.125-0.625l-21.875,0 z"  />
<glyph unicode="&#xf14f;" d="M 600-32l-480,0 q-16.25,0 -28.125,11.875t-11.875,28.125l 40,0 q 33.125,0 56.563,23.438t 23.438,56.563t-23.438,56.563t-56.563,23.438l-40,0 l0,40 l 40,0 q 33.125,0 56.563,23.438t 23.438,56.563t-23.438,56.563t-56.563,23.438l-40,0 l0,40 l 40,0 q 33.125,0 56.563,23.438t 23.438,56.563t-23.438,56.563t-56.563,23.438l-40,0 q0,16.25 11.875,28.125t 28.125,11.875l 480,0 q 16.25,0 28.125-11.875t 11.875-28.125l0-560 
q0-16.25 -11.875-28.125t-28.125-11.875zM 420,224.25l0,11.25 q 60,24.375 60,132.5q0,39.375 -27.813,59.688t-71.875,20.313t-72.188-20.313t-28.125-59.688q0-105 60-131.875l0-11.875 q-43.125-7.5 -71.25-28.125t-28.75-46.875q0-7.5 13.438-12.188t 39.375-6.563t 42.813-2.188t 44.375-0.313t 44.375,0.313t 42.813,2.188t 39.375,6.563t 13.438,12.188q-0.625,26.25 -28.75,46.875t-71.25,28.125zM 160,487.687
q0-16.563 -11.563-28.125t-28.438-11.563l-80,0 q-16.25,0 -28.125,11.563t-11.875,28.125t 11.563,28.438t 28.438,11.875l 80,0 q 16.875,0 28.438-11.875t 11.563-28.438zM 40,328l 80,0 q 16.875,0 28.438-11.875t 11.563-28.438t-11.563-28.125t-28.438-11.563l-80,0 q-16.25,0 -28.125,11.563t-11.875,28.438t 11.875,28.438t 28.125,11.563zM 40,128l 80,0 q 16.875,0 28.438-11.875t 11.563-28.125t-11.563-28.125
t-28.438-11.875l-80,0 q-16.25,0 -28.125,11.875t-11.875,28.438t 11.875,28.125t 28.125,11.563z"  />
<glyph unicode="&#xf19c;" d="M 640,88l0-5 q0-10 -0.313-14.375t-1.875-10.313t-5.938-8.125t-11.875-2.188l-140,93.125l0-93.125 q0-16.25 -11.875-28.125t-28.125-11.875l-360,0 q-16.875,0 -28.438,11.563t-11.563,28.438l0,240 q0,16.25 11.563,28.125t 28.438,11.875l 40,0 l 280,0 l 40,0 q 16.25,0 28.125-11.875t 11.875-28.125l0-93.125 l 140,93.125q 7.5,0 11.875-2.188t 5.938-8.125t 1.875-10.313t 0.313-14.375l0-5 l0-160 zM0,447.687
q0,49.688 35,85t 84.688,35.313t 85-35t 35.313-85t-35.313-85t-85-35t-84.688,35t-35,84.688zM 280,447.687q0,49.688 35,85t 84.688,35.313t 85-35t 35.313-85t-35.313-85t-85-35t-84.688,35t-35,84.688z"  />
<glyph unicode="&#xe002;" d="M 120,246.571l0-277.144 c 6.534-0.935, 13.209-1.429, 20-1.429l 20,0 L 160,248 l-20,0 C 133.209,248, 126.534,247.506, 120,246.571zM 480,248l0-280 l 20,0 c 6.793,0, 13.466,0.494, 20,1.429L 520,246.571 c-6.534,0.935-13.208,1.429-20,1.429L 480,248 zM 640,288C 640,464.731, 496.731,608, 320,608S0,464.731,0,288c0-38.386, 6.768-75.191, 19.16-109.296C 6.99,157.952,0,133.796,0,108
		c0-55.846, 32.704-104.049, 80-126.52L 80,234.52 c-12.579-5.976-24.112-13.787-34.286-23.065C 41.969,229.718, 40,248.629, 40,268
		C 40,422.64, 165.36,548, 320,548s 280-125.36, 280-280c0-19.371-1.968-38.282-5.714-56.545c-10.175,9.277-21.706,17.089-34.286,23.065
		l0-253.040 c 47.297,22.471, 80,70.674, 80,126.52c0,25.796-6.99,49.953-19.16,70.704C 633.233,212.809, 640,249.614, 640,288z"  />
<glyph unicode="&#xe003;" d="M 85.184,138.669c-46.998,0-85.183-38.334-85.183-85.047c0-46.971, 38.188-84.876, 85.183-84.876
		c 47.166,0, 85.309,37.905, 85.309,84.876C 170.491,100.335, 132.353,138.669, 85.184,138.669zM 0.098,390.544l0-122.661 c 79.865,0, 154.974-31.233, 211.536-87.82c 56.49-56.449, 87.676-131.898, 87.676-212.063l 123.201,0 
		C 422.51,201.013, 232.96,390.544, 0.098,390.544zM 0.242,608l0-122.722 c 284.864,0, 516.722-232.084, 516.722-517.278L 640-32 C 640,320.794, 352.966,608, 0.242,608z"  />
<glyph unicode="&#xe004;" d="M 480,475.872l-91.392,0 c-10.816,0-22.88-14.208-22.88-33.248L 365.728,376.64 L 480,376.64 l0-94.080 l-114.272,0 L 365.728,0 L 257.824,0 l0,282.528 L 160,282.528 L 160,376.64 l 97.824,0 L 257.824,432 
	c0,79.392, 55.104,144, 130.752,144L 480,576 L 480,475.872 z"  />
<glyph unicode="&#xe006;" d="M 605.12,421.088c-32.192-184.704-212-341.12-266.080-376.832c-54.112-35.712-103.424,14.304-121.344,52.16
	C 197.216,139.52, 135.808,373.44, 119.712,392.768C 103.648,412.192, 55.392,373.44, 55.392,373.44L 32,404.672c0,0, 97.984,119.2, 172.544,134.080
	c 79.040,15.776, 78.912-123.648, 97.92-201.056c 18.4-74.912, 30.752-117.792, 46.784-117.792c 16.096,0, 46.784,41.792, 80.416,105.824
	c 33.696,64.096-1.44,120.672-67.264,80.448C 388.704,567.072, 637.312,605.76, 605.12,421.088z"  />
<glyph unicode="&#xe007;" d="M 275.712,184.704C 258.912,96.608, 238.4,12.128, 177.6-32c-18.752,133.184, 27.552,233.184, 49.056,339.36
	c-36.672,61.76, 4.416,185.984, 81.792,155.36c 95.2-37.664-82.432-229.536, 36.8-253.504c 124.512-25.024, 175.328,216, 98.144,294.368
	C 331.84,616.8, 118.656,506.208, 144.896,344.192c 6.368-39.616, 47.296-51.648, 16.352-106.304c-71.392,15.808-92.704,72.128-89.952,147.2
	C 75.712,507.936, 181.696,593.952, 288,605.856c 134.464,15.072, 260.64-49.344, 278.016-175.808c 19.616-142.72-60.64-297.312-204.448-286.176
	C 322.624,146.848, 306.272,166.144, 275.712,184.704z"  />
<glyph unicode="&#xe008;" d="M 162.432,510.4c0-34.016-25.12-61.568-66.432-61.568c-38.88,0-64,27.552-64,61.568c0,34.816, 25.952,61.568, 65.632,61.568
		S 161.632,545.216, 162.432,510.4z M 35.264,4.032L 35.264,400.192 L 158.4,400.192 l0-396.16 L 35.264,4.032 zM 232.096,273.824c0,49.408-1.632,90.72-3.264,126.368l 106.944,0 l 5.696-55.104l 2.432,0 c 16.192,25.952, 55.904,64, 122.336,64
		c 80.992,0, 141.76-54.272, 141.76-170.944l0-234.144 l-123.136,0 l0,219.552 c0,51.040-17.856,85.888-62.4,85.888c-34.016,0-54.24-23.488-63.168-46.176
		c-3.264-8.096-4.064-19.424-4.064-30.784l0-228.48 L 232.096,4 L 232.096,273.824 z"  />
<glyph unicode="&#xe009;" d="M 63.68,429.152c0-47.776, 15.968-82.304, 47.424-102.56c 25.76-16.608, 55.68-19.104, 71.232-19.104c 3.776,0, 6.784,0.16, 8.896,0.288
	c0,0-4.928-32.096, 18.88-63.872l-1.088,0.032c-41.248,0-175.808-8.64-175.808-119.264c0-112.544, 123.584-118.24, 148.352-118.24
	c 1.952,0, 3.072,0.032, 3.072,0.032c 0.288,0, 2.048-0.064, 5.056-0.064c 15.904,0, 57.024,1.984, 95.232,20.576
	c 49.536,24.032, 74.688,65.888, 74.688,124.32c0,56.48-38.272,90.080-66.24,114.656c-17.056,14.976-31.808,27.904-31.808,40.48
	c0,12.8, 10.752,22.432, 24.384,34.624c 22.016,19.712, 42.816,47.776, 42.816,100.832c0,46.656-6.048,77.952-43.328,97.792
	c 3.904,1.984, 17.632,3.424, 24.448,4.384c 20.192,2.752, 49.728,5.888, 49.728,22.368L 359.616,569.6 L 212.48,569.6 C 211.008,569.568, 63.68,564.096, 63.68,429.152z
	 M 301.216,140.736c 2.816-44.992-35.68-78.208-93.472-82.4c-58.688-4.32-107.040,22.112-109.856,67.104c-1.344,21.6, 8.128,42.752, 26.72,59.616
	c 18.88,17.056, 44.736,27.584, 72.928,29.696c 3.328,0.192, 6.624,0.352, 9.92,0.352C 261.76,215.104, 298.56,183.168, 301.216,140.736z M 262.784,459.968
	c 14.432-50.784-7.36-103.872-42.080-113.664C 216.704,345.184, 212.576,344.608, 208.416,344.608c-31.84,0-63.36,32.192-75.040,76.544
	C 126.848,446.080, 127.36,467.84, 134.848,488.8C 142.208,509.376, 155.424,523.328, 172.064,528c 4,1.152, 8.16,1.696, 12.32,1.696
	C 222.784,529.696, 247.488,513.76, 262.784,459.968z M 510.752,349.376l0,96 l-60.8,0 l0-96 l-96,0 l0-60.8 l 96,0 l0-96 l 60.8,0 l0,96 l 96,0 l0,60.8 L 510.752,349.376 z"  />
<glyph unicode="&#xe00a;" d="M 421.76,246.080c-22.976,0-41.6-25.792-41.6-57.568c0-31.808, 18.624-57.6, 41.6-57.6s 41.6,25.792, 41.6,57.6
	C 463.328,220.32, 444.704,246.080, 421.76,246.080z M 566.592,395.968c 4.736,11.68, 4.96,78.080-20.288,141.632c0,0-57.984-6.336-145.664-66.528
	c-18.4,5.088-49.536,7.616-80.64,7.616c-31.136,0-62.24-2.56-80.672-7.616C 151.68,531.264, 93.728,537.6, 93.728,537.6
	C 68.48,474.048, 68.672,407.648, 73.44,395.968C 43.744,363.712, 25.6,324.992, 25.6,272.096c0-229.952, 190.784-233.632, 238.944-233.632
	c 10.912,0, 32.608-0.032, 55.488-0.064c 22.88,0.032, 44.576,0.064, 55.424,0.064c 48.192,0, 238.944,3.68, 238.944,233.632
	C 614.4,324.992, 596.288,363.712, 566.592,395.968z M 320.896,66.72L 319.136,66.72 c-120.704,0-214.72,14.4-214.72,131.712c0,28.096, 9.952,54.176, 33.472,75.808
	c 39.328,36.064, 105.792,16.96, 181.248,16.96c 0.288,0, 0.608,0, 0.896,0.032c 0.32,0, 0.608-0.032, 0.864-0.032c 75.456,0, 141.952,19.104, 181.248-16.96
	c 23.52-21.632, 33.44-47.712, 33.44-75.808C 535.584,81.12, 441.632,66.72, 320.896,66.72z M 218.272,246.080c-22.976,0-41.6-25.792-41.6-57.568
	c0-31.808, 18.624-57.6, 41.6-57.6s 41.6,25.792, 41.6,57.6C 259.872,220.32, 241.248,246.080, 218.272,246.080z"  />
<glyph unicode="&#xe00b;" d="M 614.4,470.624c-21.696-9.632-44.96-16.096-69.408-19.040c 24.96,14.944, 44.128,38.624, 53.12,66.816c-23.328-13.824-49.184-23.904-76.672-29.312
	c-22.048,23.488-53.44,38.144-88.192,38.144c-66.72,0-120.8-54.080-120.8-120.768c0-9.472, 1.056-18.688, 3.136-27.52
	c-100.384,5.024-189.408,53.12-248.96,126.208C 56.192,487.328, 50.208,466.56, 50.208,444.416c0-41.92, 21.344-78.88, 53.76-100.544
	c-19.808,0.64-38.432,6.048-54.72,15.104c0-0.512,0-0.992,0-1.504c0-58.528, 41.664-107.328, 96.896-118.464c-10.112-2.752-20.8-4.224-31.84-4.224
	c-7.776,0-15.328,0.736-22.72,2.144c 15.36-48, 60-82.912, 112.832-83.872c-41.344-32.416-93.408-51.712-150.016-51.712
	c-9.76,0-19.36,0.576-28.8,1.696c 53.44-34.272, 116.928-54.272, 185.184-54.272c 222.176,0, 343.68,184.064, 343.68,343.712
	c0,5.216-0.096,10.432-0.352,15.616C 577.728,425.12, 598.176,446.4, 614.4,470.624z"  />
<glyph unicode="&#xe005;" d="M 21.504,177.408L 32,222.208l-10.496,46.304c-0.288,1.376-2.912,2.432-6.144,2.432c-3.264,0-5.888-1.056-6.144-2.432L0,222.208
	l 9.248-44.8c 0.256-1.408, 2.88-2.432, 6.144-2.432C 18.592,174.976, 21.216,176, 21.504,177.408z M 87.104,152.544L 96,221.792L 87.104,328.896
	C 86.848,331.648, 83.52,333.792, 79.488,333.792c-4.064,0-7.392-2.112-7.584-4.864L 64,221.792l 7.904-69.248c 0.192-2.72, 3.52-4.832, 7.584-4.832
	C 83.52,147.68, 86.848,149.824, 87.104,152.544z M 152.576,153.664L 160,221.76L 152.576,364.384c-0.192,3.328-4.16,5.984-8.992,5.984
	c-4.864,0-8.832-2.624-8.992-5.984L 128,221.76l 6.592-68.128c 0.16-3.328, 4.128-5.952, 8.992-5.952
	C 148.416,147.68, 152.384,150.304, 152.576,153.664z M 217.92,154.688L 224,221.728l-6.080,143.68C 217.76,369.376, 213.28,372.512, 207.68,372.512
	c-5.632,0-10.112-3.136-10.272-7.104L 192,221.728l 5.44-67.040c 0.096-3.936, 4.608-7.072, 10.24-7.072C 213.28,147.616, 217.76,150.688, 217.92,154.688z
	 M 283.2,155.52L 288,221.696L 283.2,386.432C 283.104,390.976, 277.952,394.656, 271.744,394.656c-6.208,0-11.328-3.68-11.424-8.224L 256,221.76
	c0-0.096, 4.32-66.208, 4.32-66.208c 0.096-4.48, 5.216-8.16, 11.424-8.16C 277.952,147.36, 283.104,151.008, 283.2,155.52z M 328.896,147.328
	c 0.192,0, 227.168-0.128, 228.64-0.128c 45.568,0, 82.464,35.712, 82.464,79.776s-36.896,79.776-82.464,79.776c-11.328,0-22.080-2.208-31.904-6.208
	C 519.072,372.416, 456.704,428.8, 380.672,428.8c-18.592,0-36.736-3.52-52.736-9.536C 321.728,416.928, 320.032,414.56, 320,409.92l0-253.152 
	C 320.064,151.872, 323.968,147.808, 328.896,147.328z"  />
<glyph unicode="&#xe00c;" d="M 597.472,222.784c 4.256,19.968, 6.496,40.704, 6.496,62.016c0,159.552-125.728,288.928-280.832,288.928c-16.352,0-32.416-1.472-48-4.224
	C 249.984,585.76, 220.32,595.2, 188.448,595.2C 98.528,595.2, 25.6,520.16, 25.6,427.616c0-30.912, 8.192-59.872, 22.4-84.736
	c-3.712-18.752-5.696-38.176-5.696-58.080c0-159.552, 125.76-288.928, 280.832-288.928c 17.568,0, 34.784,1.664, 51.424,4.832
	c 22.912-12.672, 49.12-19.872, 76.96-19.872c 89.984,0, 162.88,75.008, 162.88,167.552C 614.4,175.104, 608.288,200.384, 597.472,222.784z M 467.168,146.688
	c-12.992-18.912-32.192-33.92-57.056-44.544c-24.64-10.528-54.112-15.872-87.744-15.872c-40.352,0-74.144,7.296-100.544,21.728
	c-18.88,10.464-34.432,24.672-46.24,42.176c-11.936,17.728-17.984,35.296-17.984,52.224c0,10.592, 3.936,19.776, 11.712,27.296
	c 7.712,7.424, 17.568,11.232, 29.312,11.232c 9.632,0, 17.984-2.976, 24.736-8.832c 6.464-5.664, 12-14.016, 16.448-24.736
	c 4.992-11.744, 10.4-21.632, 16.128-29.44c 5.504-7.488, 13.44-13.824, 23.552-18.752c 10.176-4.928, 23.904-7.456, 40.8-7.456
	c 23.2,0, 42.24,5.088, 56.544,15.168c 14.016,9.856, 20.8,21.632, 20.8,36.064c0,11.392-3.552,20.384-10.848,27.392
	c-7.648,7.328-17.76,13.056-29.984,16.992c-12.768,4.096-30.112,8.512-51.52,13.12c-29.152,6.432-53.92,14.048-73.6,22.656
	C 211.584,291.872, 195.328,304.096, 183.456,319.392c-12.064,15.488-18.176,35.008-18.176,57.92c0,21.824, 6.4,41.504, 19.072,58.464
	c 12.576,16.832, 30.88,29.952, 54.496,38.944C 262.176,483.584, 289.92,488.096, 321.28,488.096c 25.088,0, 47.136-3.008, 65.536-8.864
	c 18.496-5.952, 34.112-13.952, 46.368-23.808c 12.352-9.952, 21.536-20.576, 27.328-31.552c 5.824-11.168, 8.768-22.24, 8.768-32.96
	c0-10.336-3.872-19.712-11.52-27.904c-7.68-8.224-17.408-12.384-28.832-12.384c-10.368,0-18.528,2.624-24.192,7.744
	c-5.248,4.768-10.72,12.256-16.736,22.944c-7.008,13.728-15.488,24.512-25.184,32.096c-9.472,7.392-25.216,11.168-46.912,11.168
	c-20.128,0-36.512-4.16-48.672-12.384C 255.488,404.256, 249.824,395.2, 249.824,384.48c0-6.592, 1.824-12.096, 5.6-16.8
	c 4-5.024, 9.6-9.44, 16.736-13.088c 7.36-3.808, 14.976-6.848, 22.592-9.024c 7.808-2.208, 20.896-5.504, 38.88-9.792
	c 22.72-5.024, 43.584-10.656, 62.048-16.704c 18.72-6.144, 34.88-13.76, 48.064-22.56c 13.44-9.024, 24.096-20.608, 31.648-34.4
	c 7.552-13.888, 11.392-31.008, 11.392-50.88C 486.816,187.36, 480.224,165.696, 467.168,146.688z"  />
<glyph unicode="&#xe00d;" d="M 499.2,25.728c-24.832-11.84-47.36-20.192-67.488-24.96c-20.16-4.736-41.984-7.168-65.376-7.168c-26.592,0-50.080,3.424-70.56,10.208
	c-20.416,6.816-37.824,16.512-52.288,29.024c-14.432,12.64-24.448,25.984-30.016,40.16c-5.6,14.176-8.384,34.72-8.384,61.632L 205.088,341.152 L 140.8,341.152 L 140.8,424.48 
	C 163.648,432, 183.264,442.72, 199.52,456.768c 16.32,14.016, 29.376,30.88, 39.264,50.56C 248.64,527.008, 255.392,552, 259.136,582.4l 82.72,0 l0-148.832 l 138.080,0 l0-92.416 
	l-138.080,0 l0-151.008 c0-34.112, 1.792-56.032, 5.408-65.76c 3.52-9.664, 10.176-17.408, 19.872-23.2c 12.928-7.808, 27.616-11.712, 44.192-11.712
	c 29.472,0, 58.752,9.696, 87.872,29.056L 499.2,25.728 z"  />
<glyph unicode="&#xe00e;" d="M 306.080,370.528C 262.624,447.808, 216.16,510.784, 212.736,515.392C 142.624,482.272, 90.272,417.696, 73.984,339.84C 80.576,339.712, 185.344,338.464, 306.080,370.528
	z M 337.408,286.080c 3.328,1.056, 6.592,2.016, 9.952,2.976c-6.304,14.304-13.216,28.608-20.416,42.72c-129.472-38.72-253.728-35.936-258.144-35.808
	C 68.704,293.312, 68.608,290.688, 68.608,288c0-64.672, 24.448-123.552, 64.512-168.096c-0.064,0.064-0.192,0.224-0.192,0.224
	S 201.76,242.176, 337.408,286.080z M 165.472,89.824l 0.064,0.096c-1.888,1.472-3.872,2.784-5.696,4.32
	C 163.168,91.552, 165.472,89.824, 165.472,89.824z M 259.776,532.096C 259.552,532.032, 259.328,532, 259.136,531.936C 259.488,532.032, 259.744,532.064, 259.776,532.096
	L 259.776,532.096z M 486.048,476.672c-44.288,39.008-102.368,62.72-166.016,62.72c-20.448,0-40.256-2.496-59.264-7.104
	c 3.808-5.056, 51.008-67.776, 94.016-146.656C 449.568,421.184, 485.408,475.648, 486.048,476.672z M 320.032-6.4C 157.408-6.4, 25.6,125.408, 25.6,288
	s 131.808,294.4, 294.432,294.4c 162.592,0, 294.368-131.808, 294.368-294.4S 482.624-6.4, 320.032-6.4z M 362.784,246.88c-147.552-51.424-196.288-154.848-197.248-156.96
	c 42.624-33.312, 96.192-53.312, 154.496-53.312c 34.816,0, 67.968,7.072, 98.112,19.872c-3.712,22.048-18.336,99.072-53.696,190.976
	C 363.904,247.232, 363.328,247.072, 362.784,246.88z M 374.080,348.192c 5.888-12, 11.488-24.16, 16.704-36.48c 1.888-4.352, 3.648-8.672, 5.44-12.992
	c 86.848,10.912, 172.32-7.616, 175.104-8.224c-0.576,59.648-21.888,114.368-57.152,157.184C 513.664,446.944, 473.344,388.704, 374.080,348.192z M 411.552,259.040
	c 33.024-90.72, 46.4-164.544, 48.928-179.584c 56.48,38.112, 96.576,98.56, 107.744,168.672C 563.264,249.76, 492.832,272.064, 411.552,259.040z"  />
<glyph unicode="&#xe00f;" d="M 353.664,350.080l 43.648-21.088l 65.888,21.088L 463.2,388.32 C 463.2,467.104, 398.976,531.2, 320,531.2c-78.944,0-143.168-64.096-143.168-142.88l0-200.64 
	c0-18.496-15.104-33.568-33.632-33.568s-33.632,15.072-33.632,33.568L 109.568,271.68 L0,271.68 l0-84 C0,108.896, 64.224,44.8, 143.2,44.8s 143.2,64.096, 143.2,142.88
	l0,200.64 c0,18.496, 15.104,33.568, 33.632,33.568c 18.56,0, 33.664-15.072, 33.664-33.568L 353.696,350.080 z M 530.464,271.68l0-84 c0-18.496-15.104-33.568-33.632-33.568
	c-18.56,0-33.664,15.072-33.664,33.568l0,85.696 l-65.888-21.088l-43.648,21.088l0-85.696 c0-78.784, 64.224-142.88, 143.2-142.88
	c 78.944,0, 143.168,64.096, 143.168,142.88L 640,271.68 L 530.464,271.68 z"  />
<glyph unicode="&#xe010;" d="M 251.968,205.536c-13.408-12.032-39.168-36.16-82.048-36.16c-50.592,0-99.328,44.352-99.328,115.296c0,90.912, 58.24,120.224, 102.976,120.224
		c 64.512,0, 78.656-38.912, 96.224-92.864l 23.456-73.92c 23.424-71.648, 67.424-129.28, 194.24-129.28c 90.944,0, 152.512,28.064, 152.512,101.952
		c0,59.872-33.76,90.912-96.768,105.696L 496.32,326.784c-32.256,7.392-41.792,20.672-41.792,42.88c0,25.12, 19.776,39.904, 52.032,39.904
		c 35.2,0, 54.24-13.312, 57.184-45.088l 73.312,8.864C 631.2,439.84, 585.76,467.2, 510.976,467.2c-65.984,0-130.464-25.12-130.464-105.664
		c0-50.24, 24.192-82.016, 84.992-96.8l 49.888-11.808c 37.376-8.864, 49.856-24.416, 49.856-45.856c0-27.328-26.4-38.4-76.256-38.4
		c-74.016,0-111.232,39.168-128.8,93.088l-24.224,73.92C 305.184,431.712, 268.832,467.2, 171.328,467.2C 84.416,467.2,0,398.464,0,281.728
		C0,169.376, 81.024,108.8, 166.208,108.8c 61.6,0, 92.864,21.632, 108.16,32.736L 251.968,205.536z"  />
<glyph unicode="&#xe011;" d="M 509.952,320.768c 75.232,22.24, 119.328,101.952, 87.648,103.552c-81.312,4.128-150.848,43.52-197.696,72.96
	c-4.96,3.264-10.016,6.368-15.232,9.28l0-183.2 c0-60.576-36.64-108.832-78.176-128.896c-60.32-29.12-127.52-10.848-150.112,40.832
	c-22.592,51.68, 8,117.184, 68.32,146.272c 33.376,16.096, 68.8,17.664, 97.664,7.136L 322.368,530.816 C 304.128,535.168, 285.152,537.6, 265.6,537.6
	c-136.096,0-246.432-111.744-246.432-249.6c0-137.856, 110.336-249.6, 246.432-249.6c 136.128,0, 246.432,111.744, 246.432,249.6
	C 512.032,299.104, 511.328,310.048, 509.952,320.768z"  />
<glyph unicode="&#xe012;" d="M 320,569.6C 164.48,569.6, 38.4,443.52, 38.4,288c0-71.104, 26.336-136.032, 69.824-185.568c 44.032,44.032, 104.384,68.768, 173.664,66.528
	c 88.352-2.848, 158.080-44.704, 198.080-112.736C 553.44,107.040, 601.6,191.872, 601.6,288C 601.6,443.52, 475.488,569.6, 320,569.6z M 457.696,187.616
	c-4.96-8.224-15.584-10.752-23.744-5.792c-65.216,39.84-147.264,48.832-243.904,26.784c-9.28-2.144-18.592,3.68-20.672,13.024
	c-2.144,9.28, 3.648,18.56, 12.992,20.672c 105.728,24.16, 196.448,13.728, 269.6-30.912C 460.096,206.4, 462.688,195.776, 457.696,187.616z
	 M 491.616,267.488c-6.24-10.176-19.552-13.344-29.728-7.072C 387.328,306.24, 273.536,319.52, 185.28,292.736C 173.824,289.28, 161.728,295.744, 158.272,307.136
	C 154.816,318.592, 161.28,330.688, 172.672,334.144c 100.832,30.624, 226.176,15.808, 311.872-36.864C 494.72,290.976, 497.952,277.728, 491.616,267.488z M 494.56,350.24
	C 405.12,403.424, 257.504,408.256, 172.096,382.368C 158.4,378.176, 143.904,385.952, 139.68,399.648C 135.552,413.376, 143.296,427.904, 157.024,432.032
	c 98.080,29.792, 261.056,24.032, 364.032-37.12c 12.352-7.328, 16.416-23.264, 9.088-35.584C 522.816,347.008, 506.944,342.976, 494.56,350.24z M 280.064,84.768
	c-39.616,1.28-72.608-14.176-96.672-43.072C 223.84,19.232, 270.4,6.4, 320,6.4c 23.904,0, 47.136,2.976, 69.28,8.608
	C 368.032,58.592, 331.008,83.136, 280.064,84.768z"  />
<glyph unicode="&#xe013;" d="M 195.488,579.136L 12.8,465.344l 125.152-104.928L 320,478.656L 195.488,579.136z M 430.464,96.192c-3.264,0-6.496,1.12-9.12,3.328L 320,183.552
	l-101.344-84.064c-2.624-2.176-5.888-3.328-9.12-3.328c-2.72,0-5.44,0.736-7.808,2.304l-75.072,49.12l0-28.992 L 320-3.136l 193.344,121.76
	l0,28.992 l-75.072-49.12C 435.904,96.928, 433.184,96.192, 430.464,96.192z M 627.2,465.344l-182.688,113.792L 320,478.656l 182.016-118.208L 627.2,465.344z
	 M 320,246.688l 112.864-93.696l 180.544,118.016l-111.36,89.408L 320,246.688z M 207.136,152.992L 320,246.688L 137.984,360.448l-111.36-89.44L 207.136,152.992z"  />
<glyph unicode="&#xe014;" d="M 540,168c-28.225,0-53.7-11.711-71.882-30.519L 198.74,272.17C 199.561,277.327, 200,282.611, 200,288
	s-0.439,10.672-1.26,15.829l 269.377,134.689C 486.3,419.711, 511.775,408, 540,408c 55.229,0, 100,44.771, 100,100S 595.229,608, 540,608
	s-100-44.771-100-100c0-5.389, 0.44-10.672, 1.26-15.829L 171.882,357.481C 153.7,376.287, 128.225,388, 100,388c-55.229,0-100-44.772-100-100
	c0-55.23, 44.771-100, 100-100c 28.225,0, 53.7,11.711, 71.882,30.518l 269.377-134.689C 440.44,78.673, 440,73.389, 440,68
	c0-55.23, 44.771-100, 100-100s 100,44.77, 100,100C 640,123.228, 595.229,168, 540,168z"  />
<glyph unicode="&#xe015;" d="M 596.88,128C 624.3,175.1, 640,229.56, 640,288c0,176.72-143.28,320-320,320S0,464.72,0,288s 143.28-320, 320-320
		c 88.36,0, 168.36,35.78, 226.24,93.76L 489.6,118.4C 446.18,74.88, 386.18,48, 320,48C 187.66,48, 80,155.66, 80,288S 187.66,528, 320,528s 240-107.66, 240-240
		c0-28.44-5.46-55.62-14.6-80.94L 544.76,208L 480,208 L 480,447.14 l-160,0 c-88.36,0-160-71.64-160-160s 71.64-160, 160-160c 36.72,0, 70.16,12.9, 97.18,33.68
		C 431.72,141.44, 453.9,128, 480,128L 596.88,128 z M 400,327.84l0-40.7 c0-44.14-35.94-80-80-80s-80,35.86-80,80s 35.94,80, 80,80l 80,0 L 400,327.84 z"  />
<glyph unicode="&#xf049;" d="M 635.625,149.25l-218.75,218.125l 218.75,218.75q 4.375-9.375 4.375-18.75l0-400 q0-9.375 -4.375-18.125zM 39.375,607.375l 0.625,0 l 560,0 l 0.625,0 l-280.625-280.625zM 4.375,149.25q-4.375,8.75 -4.375,18.125l0,400 q0,9.375 4.375,18.75l 218.75-218.75zM 295.625,294.875q 3.75-3.75 9.688-5.625t 10.313-1.875l 4.375,0 q 16.25-0.625 24.375,7.5l 44.375,44.375l 211.875-211.875l-0.625,0 l0-1.25 t 0.313-2.5t-0.313-3.75t-1.563-4.688t-2.813-5.313t-5-6.25l-151.875-130
q-5-4.375 -17.813-5.313t-26.25,2.188t-24.063,11.563t-10.625,20.313l0,45 l-120,0 q-16.25,0 -28.125,11.875t-11.875,28.125l0,40 l-160,0 l-0.625,0 l 211.875,211.875zM 280,87.375l 120,0 l0-50.625 q 16.25-15.625 26.875-5l 93.125,80.625q 6.25,6.25 6.25,15t-6.25,15l-93.125,80.625q-10.625,10.625 -26.875-5l0-50.625 l-120,0 q-16.875,0 -28.438-11.563t-11.563-28.125t 11.875-28.438t 28.125-11.875z"  />
<glyph unicode="&#xf136;" d="M 320,288l-320,161.875l0,38.125 q0,16.875 11.875,28.438t 28.125,11.563l 560,0 q 16.25,0 28.125-11.563t 11.875-28.438l0-38.125 zM 300,248l 40,0 l 300,155.625l0-315.625 q0-16.25 -11.875-28.125t-28.125-11.875l-560,0 q-16.25,0 -28.125,11.875t-11.875,28.125l0,315.625 z"  />
<glyph unicode="&#xe017;" d="M 320.26-32L 320.26,288.34 L 11.78,288.34 l0-0.26 L 0.2,288.080 L0,288.34L 640,608L 320.26-32z"  />
<glyph unicode="&#xe001;" d="M 320,608C 209.542,608, 120,518.457, 120,408c0-200, 200-440, 200-440s 200,240, 200,440C 520,518.457, 430.456,608, 320,608z M 320,285.5
	c-67.655,0-122.5,54.845-122.5,122.5s 54.845,122.5, 122.5,122.5s 122.5-54.845, 122.5-122.5S 387.655,285.5, 320,285.5zM 242.5,408A77.5,77.5 1260 1 1 397.5,408A77.5,77.5 1260 1 1 242.5,408z"  />
<glyph unicode="&#xe018;" d="M 320,608C 143.269,608,0,464.731,0,288s 143.269-320, 320-320s 320,143.269, 320,320S 496.731,608, 320,608z M 320,28
	c-143.594,0-260,116.406-260,260S 176.406,548, 320,548s 260-116.406, 260-260S 463.594,28, 320,28zM 380,348l-180,100l-40,0 l0-40 l 100-180l 180-100l 40,0 l0,40 L 380,348z M 320,248c-22.091,0-40,17.909-40,40c0,22.091, 17.909,40, 40,40
	c 22.091,0, 40-17.909, 40-40C 360,265.909, 342.091,248, 320,248z"  />
<glyph unicode="&#xe019;" d="M 540,608L 60,608 C 27,608,0,581,0,548l0-520 c0-33, 27-60, 60-60l 480,0 c 33,0, 60,27, 60,60L 600,548 C 600,581, 573,608, 540,608z M 520,48L 80,48 
		L 80,528 l 440,0 L 520,48 zM 160,248L 440,248L 440,208L 160,208zM 160,168L 440,168L 440,128L 160,128zM 200,428A60,60 4860 1 1 320,428A60,60 4860 1 1 200,428zM 300,368l-80,0 c-33,0-60-18-60-40l0-40 l 200,0 l0,40 C 360,350, 333,368, 300,368z"  />
<glyph unicode="&#xe01a;" d="M 320-32C 143.28-32,0,111.28,0,288C0,464.72, 143.28,608, 320,608c 176.72,0, 320-143.28, 320-320
	C 640,111.28, 496.72-32, 320-32z M 579.36,314.82c 0.52,0.26, 0.8,0.7, 1,1.4c 0.42-2.22, 1.44-4.18, 3.080-5.62
	c 0.040-0.2-0.060-0.16, 0.040-0.44c 0.16,0, 0.28,0.12, 0.42,0.12C 585.58,308.92, 587.66,308, 590,308c 3.6,0, 6.6,2, 8.36,4.82
	c 0.12-0.14, 0.32-0.32, 0.42-0.48c-0.020,0.32-0.060,0.64-0.1,0.96C 599.46,314.72, 600,316.28, 600,318
	c0,5.52-4.5,10-10,10c-3.52,0-6.44-1.92-8.24-4.64c-0.080,0.060,0,0.3-0.22,0.22
	c 0.26,0.76-0.44,2.7-1.54,4.78L 580,318 C 580,316.86, 579.68,315.84, 579.36,314.82z M 119.84,317.82c0,3.020-6.88,8.16-8.66,8.16
	c0,0.54-2.8,6.7-3.86,6.7c0,2.080-7.3,11.42-8.46,7.34c-0.76-2.64, 5.58-6.2, 5.58-9.26
	c 1.18,0, 6.14-9.4, 7.12-11.040c 10.84-18.32-8.1-5.8-8.1,1.96c-2.42,1.2-6.24,10.42-6.24,12.94
	c-1.42,1.14-5.62,10.040-5.28,10.040c0,5.84-3.22,8.64-9.62,8.64c-0.3,0.58-5.68,8.14-5.78,8.14
	c0,2.4-4.32,9.84-6.72,11.020c0,4.98-2.56,11.12-1.42,16.28c0,5.42-0.28,11.56-2.12,17.12C 49.58,370, 40,330.16, 40,288
	c0-120.82, 76.68-223.48, 183.92-262.74c 0.12,9.92, 0.86,21.8, 3.12,21.8c0,1.48, 1.26,7.68, 2.4,7.68c0,3.8, 0.46,8.38,0,12.94
	c-1.42,2.86, 1.88,6.52, 2.88,11.020c 5.54,2.78, 1.62,30.66, 5.8,30.66c0,13.94, 3.12,22.060, 0.94,34.98
	c 1.060,0-6.3,7.82-6.24,7.68c-7.060,0-12,11.32-12,16.28c-0.68,2.18-2.42,5.44-2.42,8.14
	c 1.62,0-10.1,17.12-10.1,16.78c-6.2,3.44, 0.34,8.24, 0.96,13.88c-5.38,1.78, 0.060,16.3, 2.4,16.3
	c 0.24,1.84, 1.2,3.1, 2.9,3.82c 1.2-4.78, 6.78,2.38, 2.4,2.38c0,3.16-0.36,9.92,0,11.5
	c0,4.88-4.32,14.44-7.68,4.32c-3.6,1.78-12.68,1.46-13.46,7.18c 0.56,2.82-5.18,8.58-7.2,9.58
	c 1.88,4.92-9.74,11.5-13.94,11.5c0,1.060-2.22,0.58-2.88,1.92c-4.28,0-5.26,5.76-10.1,5.76
	c-5.58,0-11.2,3.82-16.34,3.82c-1.72,3.42-9.7,2.080-11.54,5.76c-4.18,0-5.82,7.92-5.94,10.84
	C 127.7,305.38, 124.84,317.82, 119.84,317.82z M 524.96,478.32C 524.92,478.2, 525,478.28, 524.8,477.88c 0.3,0, 0.66-0.34, 1-0.48
	C 525.5,477.7, 525.24,478, 524.96,478.32z M 530.98,471.7c 0.7-1.36, 1.22-2.62, 1.060-3.4c 0.7-0.020, 1.040,0.36, 1.6,0.5
	C 532.78,469.78, 531.84,470.7, 530.98,471.7z M 548.36,380.58c 0.32,8.64-7.2,7.2-9.58,12c-2.48,0-3.38,1.92-6.74,1.92
	c-2.18,0.74-3.9,0.22-5.16-1.56c-5.14-1.96-2.040,2.5-5.9,2.5c 0.18,4.94-1.78,6.3-7.22,5.76
	c-3.12-7.040-7.92-11.26-7.2-19.18c 2.3-0.52, 1.9-1.040, 1.44-3.34c 3.060-0.16, 21.62,0.96, 21.62,2.88
	c 0.64,0, 3.86-6.62, 3.86-0.96c 2.58,0, 3.94-6.060, 10.1-4.3C 543.58,375.060, 553.86,380.58, 548.36,380.58z M 549.34,278.52
	c 0.36,1.76-0.88,2.54-1.92,4.32c 2.74,0-8.66,21.14-8.66,24.44c-1.74,0.86-3.96,6.9-4.36,9.1
	c-2.34,1.56-4.76,6.68-5.76,9.58c-2.38,1.58-8.18,8.66-9.12,11.98c 3.44-0.38, 8.64-1.080, 8.64,3.36
	c-2.32,0-2.66,2.86-0.46,2.86c-0.72,2.94, 1.56,5.060, 2.060,7.36c 0.6,2.78, 1.78,7.060, 1.78,10.38
	c-3.3,0-4.1-0.56-6.72-1.44c0-1.94-5.86,0.48-6.72,0.48c-1.26,2.52-10.4-3.28-12.96,1.92
	c-4.14,3.74-3.020,6.62-4.36,11.9c-0.68,2.68-4.34,2.84-6.56,3.28c-6.26,1.22-1.74-7.46-2.080-9.44
	c 3.84,0-2.42-4.76-2.42-7.18c-6.48,1.4-4.32,8.62-8.14,10.54c-1.14,1.92-0.24,3.36-2.9,3.36
	c0,2.56, 1.36,7.2-1.44,8.14c0,1.24-5.44,1.74-6.24,3.36c-3.44,0-11.44,13-13.9,8.62
	c-1.54-2.8, 1.3-3.48, 1.88-5.76c 4.98,0.98, 4.5-8.2, 10.58-7.18c0-1.28, 0.16-2.58, 0.46-3.84
	c 4.5,1.060, 3.98-3.34, 6.24-3.34c-1.64-2.18-6.84,3.48-5.42-1.28c 0.82-2.76, 0.36-5.12-3.22-7.82
	c0,2.98-0.24,11.020-3.36,11.020c-2.12,4.24-8.42,3.22-11.080,7.18c-2.16,0-3,6.72-6.72,7.18
	c-0.7-0.98-3.32-1.92-4.34-1.92c-2.020-4.060-13.44-0.42-13.44-0.96c-0.18-0.040-6.4-15.24-6.76-17.24
	c-0.7-4.3-4.16-4.38-5.2-8.46c-0.52-2.040-13.060-1.080-13.060-2.58c-5.42,1.8-10.1,5.6-10.1,11.5
	c-0.44,0, 1.020,15.060, 1.94,17.26c 1.1-0.3, 1.32-0.68, 1.94-1.92c 3.32,1.24, 11.060-0.82, 11.060,2.88
	c 3.22-0.080, 4.18-1.36, 2.88-3.84c 3-0.56, 8.18-1.32, 8.18,2.88c-1.76,0-1.94,0.16-1.94,1.92
	c 5.76,5.98-4.32,11.38-4.32,14.36c-2.040,0.68-6.2,5.1-3.24,3.44c 2.5-1.38, 11.64-4.24, 8.040,1.84
	c 0.24,0.080, 0.4,0.24, 0.46,0.46c 1.020-0.72, 5.32-5.14, 5.32-0.96c 1.18,0, 5.74,2.88, 1.92,2.88
	c 0.36,2.16, 0.28,3.96, 0.46,5.28c 6.1-3.28, 2.7,2.24, 5.78,4.3c0-3.98, 3.28,1.92, 5.28,1.92
	c 2.38,3.54, 7.82,0.8, 9.14,4.8c-2.94,0.96-2.4,8.32-2.4,11c 3.54-0.58, 7.48,4.78, 8.020,1.1
	c 0.2-1.42, 0.38-5.34, 1.1-5.88c 5.26-2.76, 3.86,1.58, 3.86,4.3c-1.76,0-4.1,6.16-4.34,9.12
	c-1.44-0.2-3.76-0.8-4.34-1.9c-5.24,0-8.8,1.9-12.96,1.9c-0.32,0.64-5.32,6.24-4.8,6.24
	c-2.92,5.020, 2.92,3.56, 3.84,3.8c0,4.76, 19.82,3.92, 20.68,11.52c-6.52,0, 6.72,11.040, 6.72,11
	c 4.42,3.78, 6.76,7.040, 12.26,7.46c 2.32,0.16, 28.12,7.28, 28.12,4.060c 1.040-0.040, 4.48-0.080, 8.040-0.2
	C 460.32,539.4, 393.58,568, 320,568c-71.26,0-136.12-26.84-185.54-70.7c 0.44-1, 0.78-1.96, 0.76-2.64
	C 137.84,494.84, 141.6,496.52, 142.44,493.2C 141.14,493.22, 139.84,493.38, 138.6,493.7c 0.92-7.42-3.24-2.88-6.72-2.88
	c0,0.18-1.54,0.8-3.18,1.24c-1.060-1-2.18-1.94-3.24-2.94C 125.58,488.8, 125.4,488.78, 125.6,488.42
	c 1.12,0, 0.54-1.74, 3.74-2.8C 133.040,484.36, 137.1,483.66, 141,483.040c 3.16-0.5, 4.98,0.58, 7.68,0.58
	c0,0.4, 6.6,3.34, 1.94,3.34c 0.64,2.64-0.54,3.3-3.38,3.34c 0.24,2.8, 6.9,0.96, 9.62,0.96
	c 2.080,3.5, 0.060,3.080, 1.9,6.26c 2.2,3.9, 4.82,0.52, 6.26,4.26C 167.2,500.98, 169.14,499.8, 169.84,497.040
	C 171.58,495.6, 180.42,482.56, 180.42,491.78C 183.58,490.72, 185.16,484.8, 185.22,481.7c 5.74,0.84, 6.24,5.14, 6.24,9.6
	c 1.32,0-0.48,2.14-0.48,2.88C 193.12,494.96, 195.8,492.14, 195.8,495.12c 0.92,0, 0.96-0.92, 0.96-1.92
	c 2.98-0.58, 4.9,0.34, 6.72-0.3c 1.26-0.44, 0.62-6.98, 0.040-9.28c-0.72-2.92-6.3-2.96-6.3-4.32
	c-6.32-4.72, 7.46-7.18, 9.62-10.060c-1.3,0-6.24,0.64-6.24,0.94c-3.12,0-10.68-3.3-13.46-0.94
	c 3.88,0, 5.18,4.66, 5.78,9.1c-3.58,1.34-7.8-0.86-8.8-4.42C 182.44,468.040, 178.54,474.16, 176.58,470.2
	C 175.82,469.96, 168.88,466.74, 168.88,467.82c-7.8-1.1-5.76-7.72-5.76-14.86C 166.22,451.1, 172.52,445.8, 172.24,442.9
	C 179.24,441.66, 181.8,440.92, 188.1,440.020c 0.52-1.020, 2.6-1.98, 3.86-2.38c0-4.12, 3.74-3.38, 7.2-3.38
	c0,5.26, 6.12-4.38, 6.72-6.22c-0.84,0, 1.44-5.38, 1.92-7.2c-0.96,0.34-1.26,0-0.96-0.96
	c 3.040-1.12, 7.86-0.8, 8.66,2.4c-2.92,0-1.94,3.34-1.94,5.28c-3,2-2.54,5.86, 0.48,6.7
	c0-2.72, 9.9,1.7, 4.32,3.82c 1.36,3.060, 2.28,7.76, 0.060,10.42c-1.42,1.68-3.2,0-3.9,2.52
	c 3.78,0.94, 1,8.14, 0.96,11.5c 1.2,0.46, 4.32-0.76, 4.32,0c 3.7,0, 9.86-4.68, 12.020,0.98
	c 6.18-2.82, 1.26-5.5, 7.7-3.36c0-1.52, 7.26-8.62, 8.18-8.62c0-0.34-0.18-2.4, 1.42-2.4
	c0-1.54-0.96,0.88-0.96-1.9c 0.9-0.1, 5.78-0.98, 5.78,0.94c 3.1,0, 5.28,3.8, 5.28,6.7
	c 1.94,1.26, 5.34-10.54, 7.68-10.54c 1.72-2.68, 7.22-6.58, 7.22-9.1c 1.16-1.18, 2.38-0.86, 2.38-4.32
	c 1.46,0, 4.34,5.74, 4.34,0.48c 1.36,0, 5.32-2.92, 5.78-5.26c-3.46,0-0.18-3.36-1.96-3.36
	c0-3.32-7.42-0.68-9.1-0.48c-2.3-10.3-16.18-2.9-24.58-5.56c-4.42-1.4-12.96-11.14-13.42-16
	c 5.36-0.060, 7.72,4.64, 12.5,6.24c 3.9,0, 4.66,2.36, 8.18,3.34c0-0.98, 0.96-0.46, 0.96-1.44
	c-6.84,0-2.68-4.42-0.68-7.64c 1.24-2, 2.66-2.96, 4.24-3.58c-0.66-1.16-1.2-2.32-1.62-3.62
	c0-0.020-0.020,0-0.020-0.020c-1.3-0.44-3.84-1.38-4.34-2.4c-7.74-0.86-3.92-0.34-3.4,1.52
	c 0.28-0.66, 3.060-0.060, 2.94-0.080c-0.46,2.32-1.16,2-0.48,3.34c-4.2,0-6.24-1.92-9.62-1.92
	c-0.56-1.14-3.5-3.84-4.8-3.84c-0.98-2.96-3.2-8.34-5.78-10.060c0,0.78-6.84-4.3-6.24-4.3
	c-1.52-2.46-3.18-2.38-3.86-6.22c-0.46-0.24-2.4-6.66-2.4-7.66c-2.98-1.98-4.080-10.060-9.14-10.060
	c-3.1-6.16-8.66-5.34-8.66-13.42c 1.88-1.92, 2.6-10.42, 3.18-13.14c 0.72-3.38, 1.84-6.9-2.68-6.98
	c-0.32,0.5-3.48,5.28-2.9,5.28c0,1.98-2.42,8.32-3.84,10.3c-1.9,2.66-5.42-0.42-8.18,0.74
	c-1.18,2.36-9.16,2.88-12,2.88c 0.46-1.78, 1.76-2.34, 1.92-4.32c-2.36-0.96-3.72-2.040-6.16-1.7
	c-4.18,0.58-3.68,3.84-8.28,3.38c-7.36-0.74-12.5-6.84-12.5-14.14c-0.82,0-0.82-14.38,0-14.38
	c0-4.060, 3.36-7, 3.36-10.060c 3.26,0, 6.92-7.18, 10.1-7.18c 0.36-2.54-1.6-2.94, 3.84-2.9
	c0,0.28, 2.96,1.86, 3.36,3.84c-3.76,0.92-0.020,5.76, 2.4,6.7c0-3.42, 4.8,1.14, 4.8,1.44
	c 0.54,0.22, 5.3,1.92, 5.3,1.92c0,3.88, 3.62-0.38, 0.96-1.92c-2.6,0-2.4-4.32-3.84-4.32
	c-0.62-3.080-1.84-5.76-2.56-8.76c-0.92-3.7, 2.080-4.080, 1.12-7.54c 3.82-0.72, 7.68-0.020, 11.54,0
	c 0.020,0.68-0.12,1.34-0.48,1.92c 5.58,0, 0.48-10.54, 3.86-10.54c0-3.98, 1.92-7.080, 1.92-9.58
	c 2.6-1.72, 4.16-4.020, 3.36-7.18c 3.2-0.42, 10.080-1.24, 10.080,2.88c 4.86,0, 5.2-3.3, 4.84-6.7
	c 9.68,0, 3.62,9.58, 7.66,9.58c 0.38,1.58, 1.040,1.86, 1.98,0.82c 1.98-1.060, 3.48,1.98, 5.060,2.94
	c 0.5,0.34, 2.26,1.36, 2.58,1.36c 1.36-0.82, 1.48-0.58, 2.080-1.5c 2.64,0.020, 5.3,1.5, 7.56,3.060
	c 3.46-0.42, 2.34-7.86, 8.82-8.32c 2.6-0.18, 8.62-0.9, 10.86,0.64c 0.56,0.38, 2.62-1.3, 2.84-2.020
	c 2.16,0, 2-1.88, 2.92-1.84c 0.22-0.42, 0.54-0.58, 0.98-0.46c 0.28-0.82, 2-1.060, 2.9-3.34
	c0-2.080, 4.32-2.44, 4.32-3.82c 3.1-1.56-1.060-1.98, 3.7-3.42c 2.62-0.82, 5.040-2.14, 7.86-2.34
	c 0.9,3.42, 3.82-0.46, 5.3-0.46c 0.76-1.56, 1.16-0.38, 1.9-1.92c 4.46-3.72, 1.52-2.28, 3.36-6.24
	c 2.14-1.4, 2.82-6.28, 3.4-9.1c-1.72,0-0.5-6.58-0.5-7.2c-2.080,0, 5.32-3.94, 5.32,0.98
	c 3.040-0.5, 5.040-3.82, 7.2-3.82c-1.26-2.9, 3.36-5.080, 3.36-0.5c 4.56-0.46, 3.34-7.26, 2.9-9.58
	c 3.38,0, 4.36,1.88, 7.24,2.24C 332.58,206.56, 336.060,208, 340,208c 11.060,0, 20-8.94, 20-20c0-9.96-7.42-17.86-16.96-19.38
	c-1.28-1.46-2.44-2.72-2.52-2.72c0-0.96-0.22-10.52-0.5-10.52c0-1.92-1.46-12.46-2.88-12.46
	c0-5.42-3.54-6.4-4.8-11.5c-2.92-2.16-10.82-5.76-12.040-8.14c-2.26,0-3.94-1.92-6.24-1.92
	c-0.32-0.66-5.22-5.28-4.34-5.28c-0.36-3.4, 0.26-11.4-1.58-13.64c-1.24-1.48-3.020-1.32-2.24-3.64
	c-2.7,0, 0.16-1.92-4.1-1.92c-2.68,0-7.46-3.82-7.6-7.060c-0.18-3.96-1.24-6.82-4.64-9.24
	c0-1.36-6.24-1.76-6.24-5.28c 0.58,0,0-6.52,0-7.18c-1.86,0.060-6.42-1.8-7.2-3.34c-6.28,0-5.52-0.64-9.6-3.36
	c0-0.84-0.58-3.82-1.44-3.82c0-4.86-3.46-0.44-6.26-2.9c 1.1,0, 2.5-4.78, 1.92-4.78
	c0-4.22-2.62-4.58-5.28-7.68c-1.26-0.84-2.46-4.32-3.36-4.32c0-2.84-1.42-5.42-1.42-8.14
	c 0.6,0, 0.040-1.22, 0.46-2.36c 1.34,0.38, 1.38,1.9, 1.92,1.9c0,2.4, 3.82-1.42, 1.44-1.42
	c-1.98-3-4.12-3.060-5.3-7.2c-1.2,0-2.24-1.16-3.12-2.52C 269.64,11.76, 294.36,8, 320,8
	c 98.48,0, 184.92,50.96, 234.84,127.86c 0.3,7.080, 1.4,13.84, 2.18,16.18c 1.96-1.44, 3.42-4.14, 4.8,0
	c-3.46,0.68-2.62,1.88-1.44,4.78c 1.32-0.8, 3.98-1.78, 6.14-1.64c 0.66,1.24, 1.18,2.56, 1.84,3.8
	c-1.96,1.52, 0.74,5.46, 1.68,3.54c 0.5,0.96, 0.94,1.96, 1.4,2.92c-0.22,0.060-0.16-0.080-0.48,0.020
	c0,1.74, 0.32,1.52, 1.46,2.4c 0.020-0.18,0-0.18, 0.040-0.34C 589.92,204.060, 600,244.8, 600,288c0,1.42-0.2,2.78-0.22,4.2
	c-0.52-1.96-1.5-4.080-2.88-4.56c0-1.26-14.3-7.48-13.44-10.060c-2.52,0-11.36-2.52-12.98-5.74
	c-1.78,0-8.96-2.54-9.62-3.84C 551.94,267.98, 553.64,278.52, 549.34,278.52z M 590,388l-10.62,0 
	c-0.080,0.1-0.16,0.12-0.24,0.26c-0.54,0-2.8,5.080-1.92,6.24c 0.86,0, 1.26-0.080, 1.72-0.12
	c-0.9,2.2-1.88,4.36-2.86,6.54c-2.16-1.48-4.060-3.36-7.040-3.54c0-0.82-4.26-9.1,0-9.1
	c0-0.16, 0.080-0.28, 0.12-0.42C 564.060,387.38, 560,383.22, 560,378c0-5.52, 4.48-10, 10-10l 3.94,0 
	c 0.24-1.82, 1.22-3.4, 4.72-4.18c 1.1-4.62, 9.34-6.26, 10.58-1.42c-3.48,0-2.34,3.34-2.040,5.6L 590,368 
	c 5.5,0, 10,4.48, 10,10C 600,383.52, 595.5,388, 590,388z M 560.86,257.96c 0.7-0.040, 5.32,0.080, 5.32,0.9
	c 4.18,0, 9.84,0.58, 13.94,1.94c0-6.2-5.22-9.66-4.34-15.82c-3.46,0-1.94-3.56-1.94-4.78
	c-2.24-1.38-2.58-3.9-5.28-5.28c0-2.78-6.24-7.38-8.080-9.76c-2.080-2.66-8.34-7.28-9.16-10.66
	c 0.22,0.8-11.44-12.14-8.72-12.14c0-2.42-3.28-21.56, 0.96-21.56c0-1.68, 3.62-17.74, 1.42-17.74
	c0-5.16-3.36-8.32-3.36-12.44c-1.64-1.12-3.98-1.74-4.8-3.38c-2.94,0-4.36-6.24-5.76-6.24
	c0-6.66-1.94-11.6-1.94-19.16c 0.54,0-3.84-10.78-3.84-11.48c-3.54-2.38-12.5-10.92-12.5-15.36c0,0-6.24-8.76-7.2-10.060
	c-1.88,0-16.36-2.72-16.36-3.84c-3.080,0-11.040-2.42-12.96,0.48c0,3.040-1.66,6.9-1.92,11.040
	c-1.48,0-1.72,6.22-3.36,6.22c0,1.32-9.18,19.66-7.7,19.66c0,1.9-1.64,8.14-1.92,8.14c0,6.6-4.82,12.1-4.82,18.2
	c-1.42,0-4.36,13.4-2.88,13.4c0,7.040, 2.46,11.64, 3.48,19.46c 1.14,8.58-0.54,13.8-2.040,19.86
	c-0.82,0-3.58,4.58-3.86,5.74c-3.86,2.56-5.28,7.64-5.28,12.44c 2.52,2.88, 3.52,13.7, 2.9,17.26
	c-4.86,2.3-6.8,1.44-12.040,1.44c-3.1,6.22-23.92,2.38-29.82,2.38c0-3.4-14.5,0.66-15.86,3.36
	c-3.54,0-10.56,7.52-10.56,11.020c-3.88,2.58-10.080,15.42-10.080,19.64c-3.36,1.68-2.34,8.16-0.5,8.16
	c 0.46,1.8-1.18,7.48-1.96,10.18c-0.58,2.020, 1.96,4.2, 1.96,6.6c0,6.68, 0.16,9.76, 3.9,16.9
	c 1.18,2.24, 2.68,4.34, 3.78,7.14c 2,5.020, 2.6,0.24, 5.3,4.72c 2.58,1.28, 4.080,5.56, 6.74,7.66
	c 1.16,1.54, 1.2,2.18,0,3.36c 0.52,0, 3.36,7.38, 3.36,9.080c 3.76,5.22, 1.1,2.84, 4.8,2.4
	c 1.36,1.48, 3.62,5.28, 5.76,5.28c 0.94,1.86, 3.3,2.88, 5.3,2.88c0-2.88, 7.84,0.94, 8.66,0.94
	c 1.34,2.7, 9.98,5.76, 12.020,5.76c0,3.28, 17.040-0.92, 19.72-0.48c0,0.48,0,0.96,0,1.44c 3.64-0.86, 10.28-15.46, 9.6-18.7
	c 2.8,0, 5.4,0.46, 7.22,0c0-3.1, 5.84-3.86, 8.5-4c 3.7-0.18, 14.56,0.38, 14.56,5.44c 2.86,0, 5.4-2, 4.84-5.26
	c 3.24-0.36, 22.5-0.74, 21.14-4.78c 2.82,0, 3.54-4.82, 6.24-4.82c-0.54-3.32, 3.36-11.98, 6.24-11.98
	c0-2.88, 1.8-8.18, 4.34-10.040c 1.36-4.12, 5.86-12.8, 10.080-15.34c-1.8-3.4, 2.74-6.2, 3.86-9.58
	c-0.26,0, 0.98-5.020, 2.38-5.76c0-3.4, 7.16-17.26, 11.080-17.26C 559.68,259.1, 555.74,258.34, 560.86,257.96z M 457.040,365.26
	c 0.74,2.86, 2.42,0.64, 3.98,0.12c 3.7-1.2, 2.42,0.060, 5.16,1.3C 466.18,358.88, 461.7,364.8, 457.040,365.26z
	 M 446.92,379.64c 1.96,0, 2.5-8.8-2.88-7.18c0,2.18-1.38,6.22, 1.46,6.22C 446.32,375.28, 446.92,376.66, 446.92,379.64z
	 M 444.54,385.38c 2.22-0.96, 3.2-0.64, 2.88,0.96c 2.92-0.96-0.38-3.040-0.96-5.28
	C 444.96,382.54, 445.42,383.060, 444.54,385.38z M 393.080,428.040c-4.72,1.22, 4.86,2.62, 5.28,3.82c-1.6,0-2.7,1.66-2.080,3.060
	c 0.72,1.66, 1.9-1.98, 3.54-1.16c 1.94,0.2, 5.76,3.1, 3.8-2.5c-2-5.68-3.82-9.84-11.020-9.94
	C 390.020,423.92, 392.5,425.28, 393.080,428.040z M 410.88,447.68c 3.88,0, 0.48-2.88-0.38-2.88c 0.66-0.26-0.12-2.58-0.12-3.34
	c 3.6,0.040, 3.66,2.24, 6.24,2.88c-0.54-3.22-4.14-3.84-0.62-6.6c 1.86-1.46, 3.76-3.18, 3.020-5.4
	c 4.58,0, 5.26-4.4, 4.32-9.58c 2.54,0, 2.42-0.12, 2.42,2.42c 2.46-0.68, 2.28-2.9,0-2.9
	c-2.28-4.5-8.26-4.3-12.5-4.3c-0.040,3.48-0.7,3.7-3.92,2.72c-4.4-1.34-0.96,3.5-0.88,5.9
	c 0.48,0, 9.98-0.44, 4.32,1.44c-0.3,5.16-1.46,6.7-6.24,6.7c0,3.52-1.24,3.26-1.82,7.12
	C 403.9,447.56, 409.18,441.46, 410.88,447.68z M 409.42,416.54c0-1.18-2.4-2.12-2.88-0.46c 0.46-0.16, 0.64,0, 0.46,0.46
	C 407.82,416.54, 408.64,416.54, 409.42,416.54z M 370,468l-20,0 C 344.48,468, 340,472.48, 340,478C 340,483.52, 344.48,488, 350,488l 20,0 
	C 375.52,488, 380,483.52, 380,478C 380,472.48, 375.52,468, 370,468z M 253.48,291c 1.12,0, 2.42-0.44, 2.42-1.44
	C 254.44,289.56, 252.56,288.18, 253.48,291z M 235.24,290.020c-0.8-1.52-7.28-1.26-8.18,0.5c 2.4,0, 4.26-0.98, 6.72,0
	c0,1.32-1.1,2.38-1.92,3.82c 2.62,0, 5.56-2, 9.14-1.92c0,2.22-0.98-0.48,0,2.4c 1.5-0.38, 5.12-3.82, 5.28-5.26
	C 241.020,290.12, 240.78,290.020, 235.24,290.020z M 214.080,301.52c-2.46,0-7.2,2.14-8.66,4.32c 2.38-0.1, 4.74-1.080, 6.24,1.44
	c 6.1-0.62, 6.64-4.82, 11.54-4.82c 0.92-1.62, 6.16-5.34, 1.1-5.82C 220.48,296.28, 215.68,298.36, 214.080,301.52z
	 M 217.92,288.1c-1.78,0-4.72-0.78-3.36,2.9C 216.92,290.68, 218.040,289.7, 217.92,288.1z M 221.28,288.58
	c-0.96-0.16-1.92-0.32-2.88-0.48C 218.68,290.32, 220.78,292.8, 221.28,288.58z M 239.060,267.52
	c-0.38-1.34-0.32-1.42-1.9-1.42c 0.16,0.62, 0.3,1.24, 0.46,1.9C 238.12,267.84, 238.58,267.68, 239.060,267.52z
	 M 195.8,307.28c 0.46-0.16, 0.96-0.34, 1.44-0.48c 0.62-2.38, 1.92-1.2, 3.36-0.48C 200.6,303.54, 194.16,302.74, 195.8,307.28z"  />
<glyph unicode="&#xe01b;" d="M 546.275,514.274 C 606.714,453.834 640,373.474 640,287.999 C 640,202.524 606.714,122.165 546.275,61.725 C 485.834,1.286 405.475-32 320-32 C 234.525-32 154.166,1.286 93.725,61.725 C 33.286,122.165 0,202.524 0,287.999 C 0,373.474 33.284,453.834 93.725,514.274 C 154.166,574.714 234.525,608 320,608 C 405.475,608 485.834,574.714 546.275,514.274 Z M 517.99,90.009 C 557.401,129.421 583.606,178.514 594.41,231.922 C 585.989,219.525 577.934,214.926 572.945,242.676 C 567.808,287.92 526.253,259.019 500.123,275.089 C 472.62,256.553 410.806,311.127 421.311,249.574 C 437.52,221.81 508.816,286.73 473.279,227.985 C 450.607,186.975 390.378,96.152 398.212,49.074 C 399.201-19.516 328.129,34.771 303.641,57.524 C 287.169,103.099 298.027,182.757 254.955,205.077 C 208.204,207.108 168.077,211.356 149.959,263.621 C 139.055,301.014 161.561,356.68 201.633,365.274 C 260.289,402.127 281.241,322.115 336.251,320.627 C 353.331,338.499 399.886,344.181 403.746,364.221 C 367.653,370.59 449.539,394.57 400.291,408.21 C 373.123,405.015 355.618,380.039 370.061,358.861 C 317.413,346.585 315.726,435.051 265.118,407.148 C 263.831,363.029 182.479,392.844 236.97,401.79 C 255.692,409.97 206.432,433.675 233.045,429.368 C 246.118,430.078 290.127,445.5 278.218,455.869 C 302.724,471.081 323.317,419.437 347.304,457.045 C 364.621,485.961 340.041,491.3 318.335,476.643 C 306.097,490.345 339.941,519.94 369.793,532.729 C 379.741,536.991 389.244,539.314 396.509,538.656 C 411.545,521.286 439.353,518.277 440.808,540.745 C 403.569,558.579 362.51,568 320,568 C 258.986,568 200.956,548.61 152.933,512.756 C 165.839,506.844 173.165,499.483 160.731,490.071 C 151.071,461.287 111.875,422.649 77.466,428.119 C 59.6,397.309 47.834,363.365 42.804,327.789 C 71.624,318.254 78.269,299.382 72.076,293.070 C 57.391,280.265 48.366,262.114 43.716,242.244 C 53.098,184.846 80.074,131.946 122.010,90.009 C 174.895,37.125 245.209,8 320,8 C 394.79,8 465.105,37.125 517.99,90.009 Z"  />
<glyph unicode="&#xe016;" d="M0,488L 200,568L 200,88L0,8 zM 440,488 L 440,8 L 240,74.666 L 240,554.666 ZM 640,568 L 640,88 L 480,24 L 480,504 Z"  />
<glyph unicode="&#xe01c;" d="M 680,44.771 C 680,16.334 696.268-8.296 720-20.344 L 720-30.305 C 713.359-31.214 706.58-31.695 699.688-31.695 C 657.183-31.695 618.845-13.865 591.736,14.72 C 575.348,10.356 557.985,8 540,8 C 440.589,8 360,79.635 360,168 C 360,256.365 440.589,328 540,328 C 639.411,328 720,256.365 720,168 C 720,133.408 707.648,101.38 686.653,75.209 C 682.387,65.944 680,55.639 680,44.771 ZM 320,608 C 494.036,608 635.62,495.116 639.898,354.55 C 609.159,368.25 575.156,375.5 540,375.5 C 480.275,375.5 423.865,354.596 381.164,316.639 C 336.885,277.281 312.5,224.493 312.5,168 C 312.5,140.080 318.465,113.070 329.835,88.132 C 326.567,88.054 323.293,88 320,88 C 303.027,88 286.369,89.084 270.11,91.153 C 201.374,22.416 119.329,10.090 40,8.28 L 40,25.102 C 82.835,46.089 120,84.315 120,128 C 120,134.096 119.526,140.081 118.648,145.935 C 46.275,193.6 0,266.406 0,348 C 0,491.594 143.269,608 320,608 Z" horiz-adv-x="720"  />
<glyph unicode="&#xe01d;" d="M 185.6,217.6L 185.6,416 L 64,416 C 28.8,416,0,387.2,0,352l0-192 c0-35.2, 28.8-64, 64-64l 32,0 l0-96 l 96,96l 160,0 c 35.2,0, 64,28.8, 64,64l0,58.24 c-2.048-0.448-4.224-0.672-6.4-0.672L 185.6,217.568 
		z M 576,576L 288,576 C 252.8,576, 224,547.2, 224,512l0-256 l 224,0 l 96-96l0,96 l 32,0 c 35.2,0, 64,28.8, 64,64L 640,512 C 640,547.2, 611.2,576, 576,576z"  />
<glyph unicode="&#xf019;" d="M 360-32l0,280 l 280,0 l0-280 l-280,0 zM 360,608l 280,0 l0-280 l-280,0 l0,280 zM0,248l 280,0 l0-280 l-280,0 l0,280 zM0,608l 280,0 l0-280 l-280,0 l0,280 z"  />
<glyph unicode="&#xf0b3;" d="M 560-32l-80,0 q-16.25,0 -28.125,11.875t-11.875,28.438t 11.875,28.125t 28.125,11.563l 60,0 q 8.125,0 14.063,5.938t 5.938,14.063l0,440 q0,8.125 -5.938,14.063t-14.063,5.938l-60,0 q-16.25,0 -28.125,11.563t-11.875,28.125t 11.875,28.438t 28.125,11.875l 80,0 q 33.125,0 56.563-23.438t 23.438-56.563l0-480 q0-33.125 -23.438-56.563t-56.563-23.438zM 100,48l 60,0 q 16.25,0 28.125-11.563t 11.875-28.125t-11.875-28.438
t-28.125-11.875l-80,0 q-33.125,0 -56.563,23.438t-23.438,56.563l0,480 q0,33.125 23.438,56.563t 56.563,23.438l 80,0 q 16.25,0 28.125-11.875t 11.875-28.438t-11.875-28.125t-28.125-11.563l-60,0 q-8.125,0 -14.063-5.938t-5.938-14.063l0-440 q0-8.125 5.938-14.063t 14.063-5.938z"  />
<glyph unicode="&#xf0b4;" d="M 599.688,248q-16.563,0 -28.125-23.438t-11.563-56.563l0-120 q0-33.125 -23.438-56.563t-56.563-23.438l-40,0 q-16.875,0 -28.438,11.875t-11.563,28.438t 11.875,28.125t 28.125,11.563l 20,0 q 8.125,0 14.063,5.938t 5.938,14.063l0,140 q0,33.125 23.438,56.563t 56.563,23.438q-33.125,0 -56.563,23.438t-23.438,56.563l0,140 q0,8.125 -5.938,14.063t-14.063,5.938l-20,0 q-16.875,0 -28.438,11.875
t-11.563,28.438t 11.875,28.125t 28.125,11.563l 40,0 q 33.125,0 56.563-23.438t 23.438-56.563l0-120 q0-33.125 11.875-56.563t 28.125-23.438t 28.125-11.875t 11.875-28.125t-11.875-28.125t-28.438-11.875zM 160,208l0-140 q0-8.125 5.938-14.063t 14.063-5.938l 20,0 q 16.875,0 28.438-11.563t 11.563-28.125t-11.563-28.438t-28.438-11.875l-40,0 q-33.125,0 -56.563,23.438t-23.438,56.563l0,120 
q0,33.125 -11.563,56.563t-28.125,23.438t-28.438,11.875t-11.875,28.125t 11.875,28.125t 28.438,11.875t 28.125,23.438t 11.563,56.563l0,120 q0,33.125 23.438,56.563t 56.563,23.438l 40,0 q 16.875,0 28.438-11.563t 11.563-28.438t-11.563-28.438t-28.438-11.563l-20,0 q-8.125,0 -14.063-5.938t-5.938-14.063l0-140 q0-33.125 -23.438-56.563t-56.563-23.438q 33.125,0 56.563-23.438t 23.438-56.563z
"  />
<glyph unicode="&#xf0b5;" d="M 460-32l-100,0 l 180,320l-180,320l 100,0 l 180-320zM 180-32l-180,320l 180,320l 100,0 l-180-320l 180-320l-100,0 z"  />
<glyph unicode="&#xf0c9;" d="M 600-32l-320,0 q-16.875,0 -28.438,11.563t-11.563,28.438l0,120 l 140,0 q 19.375,0 34.688,11.25t 21.563,28.75l 103.75,0 q 8.125,0 14.063,5.938t 5.938,14.063t-5.938,14.063t-14.063,5.938l-100,0 l0,80 l 100,0 q 8.125,0 14.063,5.938t 5.938,14.063t-5.938,14.063t-14.063,5.938l-100,0 l0,80 l 160,0 q 16.25,0 28.125-11.875t 11.875-28.125l0-360 q0-16.25 -11.563-28.125t-28.438-11.875zM 540,88l-200,0 
q-8.125,0 -14.063-5.938t-5.938-14.063t 5.938-14.063t 14.063-5.938l 200,0 q 8.125,0 14.063,5.938t 5.938,14.063t-5.938,14.063t-14.063,5.938zM 360,168l-320,0 q-16.875,0 -28.438,11.563t-11.563,28.438l0,360 q0,16.25 11.563,28.125t 28.438,11.875l 320,0 q 16.875,0 28.438-11.875t 11.563-28.125l0-360 q0-16.875 -11.875-28.438t-28.125-11.563zM 300,528l-200,0 q-8.125,0 -14.063-5.938
t-5.938-14.063t 5.938-14.063t 14.063-5.938l 200,0 q 8.125,0 14.063,5.938t 5.938,14.063t-5.938,14.063t-14.063,5.938zM 300,408l-200,0 q-8.125,0 -14.063-5.938t-5.938-14.063t 5.938-14.063t 14.063-5.938l 200,0 q 8.125,0 14.063,5.938t 5.938,14.063t-5.938,14.063t-14.063,5.938zM 300,288l-200,0 q-8.125,0 -14.063-5.938t-5.938-14.063t 5.938-14.063t 14.063-5.938l 200,0 
q 8.125,0 14.063,5.938t 5.938,14.063t-5.938,14.063t-14.063,5.938z"  />
<glyph unicode="&#xf0d7;" d="M 560-32l-440,0 q-33.125,0 -56.563,23.438t-23.438,56.563l0,440 q0,33.125 23.438,56.563t 56.563,23.438l0-80 q0-16.875 11.875-28.438t 28.125-11.563l 40,0 q 16.875,0 28.438,11.563t 11.563,28.438l0,80 l 200,0 l0-80 q0-16.875 11.875-28.438t 28.125-11.563l 40,0 q 16.875,0 28.438,11.563t 11.563,28.438l0,80 q 33.125,0 56.563-23.438t 23.438-56.563l0-440 q0-33.125 -23.438-56.563
t-56.563-23.438zM 540,368l-400,0 q-8.125,0 -14.063-5.938t-5.938-14.063t 5.938-14.063t 14.063-5.938l 400,0 q 8.125,0 14.063,5.938t 5.938,14.063t-5.938,14.063t-14.063,5.938zM 540,248l-400,0 q-8.125,0 -14.063-5.938t-5.938-14.063t 5.938-14.063t 14.063-5.938l 400,0 q 8.125,0 14.063,5.938t 5.938,14.063t-5.938,14.063t-14.063,5.938zM 540,128l-400,0 
q-8.125,0 -14.063-5.938t-5.938-14.063t 5.938-14.063t 14.063-5.938l 400,0 q 8.125,0 14.063,5.938t 5.938,14.063t-5.938,14.063t-14.063,5.938zM 500,488q-8.125,0 -14.063,5.938t-5.938,14.063l0,80 q0,8.125 5.938,14.063t 14.063,5.938t 14.063-5.938t 5.938-14.063l0-80 q0-8.125 -5.938-14.063t-14.063-5.938zM 180,488q-8.125,0 -14.063,5.938t-5.938,14.063l0,80 
q0,8.125 5.938,14.063t 14.063,5.938t 14.063-5.938t 5.938-14.063l0-80 q0-8.125 -5.938-14.063t-14.063-5.938z"  />
<glyph unicode="&#xf127;" d="M 560,208l-480,0 q-33.125,0 -56.563,23.438t-23.438,56.563t 23.438,56.563t 56.563,23.438l 480,0 q 33.125,0 56.563-23.438t 23.438-56.563t-23.438-56.563t-56.563-23.438zM 560,448l-480,0 q-33.125,0 -56.563,23.438t-23.438,56.563t 23.438,56.563t 56.563,23.438l 480,0 q 33.125,0 56.563-23.438t 23.438-56.563t-23.438-56.563t-56.563-23.438zM 80,128l 480,0 
q 33.125,0 56.563-23.438t 23.438-56.563t-23.438-56.563t-56.563-23.438l-480,0 q-33.125,0 -56.563,23.438t-23.438,56.563t 23.438,56.563t 56.563,23.438z"  />
<glyph unicode="&#xf16c;" d="M 520,368q-27.5,0 -51.875,12.188t-41.25,32.813l-191.25-93.75q 4.375-16.875 4.375-31.25t-4.375-31.25l 191.25-93.75q 17.5,21.25 41.563,33.125t 51.563,11.875q 50,0 85-35t 35-84.688t-35-85t-85-35.313q-49.375,0 -84.375,35t-35.625,84.375l-210.625,103.125q-31.25-22.5 -69.375-22.5q-50,0 -85,35.313t-35,85t 35,84.688t 85,35q 38.125,0 69.375-21.875l 210.625,102.5
q 0.625,49.375 35.625,84.375t 84.375,35q 50,0 85-35t 35-84.688t-35-85t-85-35.313z"  />
<glyph unicode="&#xf16a;" d="M 640,448q-56.875,0 -75.625-2.5q 36.25,21.875 55.625,82.5q-5.625-3.75 -18.438-11.875t-20.625-12.813t-19.688-9.688t-22.5-6.875q-38.75,41.25 -95.625,41.25q-57.5,0 -90.313-24.063t-32.813-75.938q0-2.5 -0.625-16.875t-0.625-26.563t 1.25-16.563q-83.75,4.375 -148.125,33.125t-111.875,86.875q-20-34.375 -20-60q0-35.625 10-59.063t 35-40.313q-25-0.625 -45-0.625
q0-95 91.25-113.125q-16.875-5 -35-5q-12.5,0 -24.375,2.5q 11.875-38.125 47.813-60.938t 80.313-23.438q-14.375-14.375 -33.75-23.125t-44.375-12.188t-40.625-4.063t-41.25-0.625q-2.5,0 -18.125-0.938t-21.875-0.313q 16.875-32.5 69.063-55.625t 132.188-23.125q 70,0 129.688,22.813t 101.25,60.938t 70.938,87.5t 43.125,102.5t 13.75,106.25q0,1.875 5.938,3.438t 15.313,4.688t 19.688,8.438t 21.25,16.563
t 17.813,26.875z"  />
<glyph unicode="&#xf169;" d="M 400,128q-46.25,0 -80,21.875l0-101.875 q0-33.125 -23.438-56.563t-56.563-23.438l-40,0 q-33.125,0 -56.563,23.438t-23.438,56.563q0,1.875 0.313,4.375t 2.5,9.375t 5.938,12.188t 11.875,9.688t 19.375,4.375l 5.938,0 l 5.938,0 t 5.313,0.313t 5.625,0.625l 4.688,0.938t 4.375,1.563t 3.125,2.5t 2.813,3.438t 1.563,4.688t 0.625,5.938l0,260 q0,16.875 11.563,28.438t 28.438,11.563l 40,0 q 16.875,0 28.438-11.563t 11.563-28.438l0-80 
q0-17.5 24.063-28.75t 55.938-11.25q 48.125,0 84.063,32.5t 35.938,87.5q0,38.75 -27.188,66.25t-71.875,40.625t-100.938,13.125q-43.125,0 -78.125-8.75t-63.125-27.188t-43.438-50t-15.313-74.063q0-22.5 24.375-55.625l-94.375-94.375q-50,68.75 -50,150q0,58.125 18.125,105.625t 48.438,79.375t 71.875,53.75t 86.875,31.563t 94.688,9.688q 48.75,0 94.688-9.375t 86.875-29.063t 71.875-47.813
t 48.75-67.5t 17.813-86.25q0-50.625 -15.313-93.75t-44.375-75.938t-75.625-51.563t-104.688-18.75z"  />
<glyph unicode="&#xf168;" d="M 300-32q-28.75,0 -52.5,15.938t-40,44.688t-28.438,62.188t-20.938,74.375t-14.688,75.313t-12.188,71.25t-11.25,56.25q-1.25,4.375 -3.438,16.875t-4.375,21.875t-6.25,19.688t-10.625,15.938t-15.313,5.625q-9.375,0 -28.125-11.875t-31.875-28.125l-20,40q 90,160 180,160q 31.25,0 51.25-26.563t 28.75-73.438q 5-26.25 14.063-79.063t 15.625-88.438t 15.313-74.063t 17.5-58.438t 17.5-20
q 18.75,0 47.813,36.25t 50.625,84.375t 21.563,79.375q0,34.375 -14.063,47.188t-40.313,12.813q-25.625,0 -45.625-17.5q 0.625,43.75 18.75,84.375t 50.625,66.875t 70.625,26.25q 140,0 140-160q0-46.25 -25.313-110.938t-65.625-127.5t-85.625-118.125t-90-89.375t-73.438-34.063z"  />
<glyph unicode="&#xf15e;" d="M 603.438,368q-16.563,0 -28.438,11.875t-11.875,28.125l0,65 l-133.75-134.375q-11.875-11.25 -27.813-11.25t-27.188,11.563t-11.25,27.5t 11.25,27.188l 135,134.375l-66.25,0 q-16.25,0 -28.125,11.875t-11.875,28.438t 11.875,28.125t 28.125,11.563l 160,0 q 16.875,0 28.438-11.563t 11.563-28.438l0-160 q0-16.25 -11.563-28.125t-28.125-11.875zM 408.125,105.5l 54.375,54.375q 9.375,8.75 32.813,7.5t 47.5-7.5t 39.688-13.75
q 35-16.25 51.25-40.938t 1.875-39.063l-66.25-66.25q-27.5-27.5 -73.438-30.938t-99.688,14.375t-113.75,56.563t-114.375,93.125t-93.125,114.375t-56.563,113.438t-14.375,99.375t 30.938,73.438l 66.25,66.25q 13.125,13.125 34.688-2.5t 45.938-50.625q 11.25-16.875 18.125-60.313t-5-59.688l-54.375-54.375q 11.25-40.625 59.375-100t 107.5-107.813t 100.625-59.063z"  />
<glyph unicode="&#xf338;" d="M 480,288.625q-39.375-41.875 -59.688-75.938t-20.313-64.688l0,0 q0-8.125 -5.938-14.063t-14.063-5.938l-120,0 q-8.125,0 -14.063,5.938t-5.938,14.063l0,0 q0,30.625 -20.313,64.688t-59.688,75.938q-40,53.125 -40,119.375q0,54.375 26.875,100.313t 72.813,72.813t 100.313,26.875t 100.313-26.875t 72.813-72.813t 26.875-100.313q0-66.25 -40-119.375zM 260,88l 120,0 
q 8.125,0 14.063-5.938t 5.938-14.063t-5.938-14.063t-14.063-5.938l-120,0 q-8.125,0 -14.063,5.938t-5.938,14.063t 5.938,14.063t 14.063,5.938zM 320-32q-33.125,0 -56.563,11.875t-23.438,28.125l 160,0 q0-16.25 -23.438-28.125t-56.563-11.875z"  />
<glyph unicode="&#xe01e;" d="M 631.008,599.040c-21.76,21.792-42.56,1.184-113.12-32.704C 329.088,475.552,0,291.168,0,291.168l 282.72-40.416L 323.136-32
		c0,0, 184.416,329.088, 275.168,517.888C 632.256,556.48, 652.8,577.216, 631.008,599.040z M 563.2,526.272l-205.376-381.344l-20.832,173.312L 563.2,526.272z"  />
<glyph unicode="&#x20;" horiz-adv-x="320" />
</font>
</defs>
</svg>
